<svg fill="none" xmlns="http://www.w3.org/2000/svg" viewBox="0 0 18 18"><path d="M16.667 5.675a1.857 1.857 0 0 0-.51-.847 2.034 2.034 0 0 0-.893-.495c-1.252-.33-6.268-.33-6.268-.33a51.082 51.082 0 0 0-6.26.314 2.107 2.107 0 0 0-.892.506c-.246.238-.425.53-.518.851A19.394 19.394 0 0 0 1 9.337c-.008 1.227.101 2.453.326 3.662.091.32.27.611.516.846.248.236.556.406.894.496 1.27.329 6.26.329 6.26.329 2.094.024 4.188-.08 6.268-.313.335-.087.642-.257.892-.495.244-.23.42-.524.51-.847.23-1.207.342-2.434.334-3.663a17.72 17.72 0 0 0-.333-3.678Zm-9.265 5.944V7.055l4.173 2.282-4.173 2.282Z" fill="#444"/></svg>