<svg xmlns="http://www.w3.org/2000/svg"><style>:root svg:not(:target){display:none}</style><svg fill="none" viewBox="0 0 160 160" id="catalog-categories-bracelets"><path d="M124.967 51.074c.752 1.441 1.209 3.08 1.209 4.818v21.102c0 4.616-3.092 8.527-7.246 9.9-1.325 3.987-3.778 7.854-8.051 10.432-8.676 5.231-31.124 4.837-31.198 4.837-.078 0-22.513.395-31.189-4.837-4.216-2.545-6.708-6.347-8.042-10.279-4.418-1.209-7.756-5.25-7.756-10.053v-21.1c0-1.689.427-3.283 1.139-4.694C30.17 52.11 26 53.918 26 57.434v29.983c0 10.251 11.839 24.433 53.657 24.433 41.82 0 53.657-14.182 53.657-24.433V57.434c-.001-3.684-4.576-5.494-8.347-6.36Z" fill="#363636"></path><path d="M46.561 85.46h65.523c5.564 0 10.074-4.514 10.074-10.078V56.935c0-5.563-4.51-10.075-10.074-10.075H46.561c-5.564 0-10.075 4.511-10.075 10.075v18.447c0 5.564 4.511 10.077 10.075 10.077Zm63.134-28.992a1.57 1.57 0 1 1 0 3.139 1.57 1.57 0 0 1 0-3.139Zm0 4.04a1.569 1.569 0 1 1 0 3.137 1.569 1.569 0 0 1 0-3.138Zm0 4.038a1.568 1.568 0 1 1 .001 3.137 1.568 1.568 0 0 1-.001-3.137Zm0 3.827a1.57 1.57 0 1 1-.001 3.14 1.57 1.57 0 0 1 .001-3.14Zm0 4.04a1.568 1.568 0 1 1 .001 3.136 1.568 1.568 0 0 1-.001-3.137Zm-4.039-15.945c.867 0 1.568.703 1.568 1.57a1.568 1.568 0 1 1-3.136 0c0-.868.703-1.57 1.568-1.57Zm0 15.944a1.568 1.568 0 1 1 0 3.135 1.568 1.568 0 0 1 0-3.135Zm-4.037-15.944a1.57 1.57 0 1 1-.003 3.14 1.57 1.57 0 0 1 .003-3.14Zm0 4.04a1.57 1.57 0 1 1-.003 3.138 1.57 1.57 0 0 1 .003-3.139Zm0 4.038a1.569 1.569 0 1 1-.002 3.138 1.569 1.569 0 0 1 .002-3.138Zm0 3.827a1.568 1.568 0 1 1 0 3.138 1.568 1.568 0 0 1 0-3.138Zm0 4.04a1.569 1.569 0 1 1-.002 3.137 1.569 1.569 0 0 1 .002-3.138Zm-7.654-15.945c.867 0 1.568.703 1.568 1.57a1.568 1.568 0 1 1-3.136 0 1.568 1.568 0 0 1 1.568-1.57Zm0 8.078c.867 0 1.568.702 1.568 1.57a1.568 1.568 0 1 1-1.568-1.57Zm0 3.881a1.569 1.569 0 1 1-.002 3.136 1.569 1.569 0 0 1 .002-3.136Zm0 3.985a1.568 1.568 0 1 1 0 3.135 1.568 1.568 0 0 1 0-3.135Zm-4.039-15.944a1.57 1.57 0 1 1 0 3.14 1.57 1.57 0 0 1 0-3.14Zm0 8.078a1.57 1.57 0 1 1 .001 3.139 1.57 1.57 0 0 1-.001-3.139Zm0 7.866a1.57 1.57 0 1 1 .001 3.139 1.57 1.57 0 0 1-.001-3.139Zm-4.038-15.944a1.57 1.57 0 0 1 0 3.14 1.568 1.568 0 0 1-1.568-1.57 1.567 1.567 0 0 1 1.568-1.57Zm0 4.04a1.57 1.57 0 1 1-.001 3.135 1.57 1.57 0 0 1 .001-3.136Zm0 4.038a1.57 1.57 0 1 1-.001 3.14 1.57 1.57 0 0 1 .001-3.14Zm0 7.866a1.57 1.57 0 0 1 0 3.137 1.569 1.569 0 0 1 0-3.137Zm-8.29-15.944a1.57 1.57 0 1 1 0 3.139 1.57 1.57 0 0 1 0-3.139Zm0 4.04a1.569 1.569 0 1 1 0 3.137 1.569 1.569 0 0 1 0-3.138Zm0 4.038a1.568 1.568 0 1 1 .001 3.137 1.568 1.568 0 0 1-.001-3.137Zm0 3.881a1.568 1.568 0 1 1 0 3.137 1.569 1.569 0 0 1 0-3.137Zm0 3.985a1.568 1.568 0 1 1 .001 3.137 1.568 1.568 0 0 1-.001-3.137Zm-4.039-11.905a1.568 1.568 0 1 1 0 3.136 1.568 1.568 0 0 1 0-3.136Zm-8.502-.212a1.57 1.57 0 1 1-.001 3.135 1.57 1.57 0 0 1 .001-3.135Zm0 4.038a1.57 1.57 0 1 1-.003 3.141 1.57 1.57 0 0 1 .003-3.14Zm-4.039-8.078a1.57 1.57 0 1 1-.003 3.14 1.57 1.57 0 0 1 .003-3.14Zm0 4.04a1.57 1.57 0 1 1-.003 3.139 1.57 1.57 0 0 1 .003-3.139Zm0 4.038a1.57 1.57 0 1 1-.003 3.14 1.57 1.57 0 0 1 .003-3.14Zm0 4.04a1.569 1.569 0 1 1-.001 3.137 1.569 1.569 0 0 1 .001-3.137Zm-4.254-8.078a1.569 1.569 0 1 1 0 3.138 1.569 1.569 0 0 1 0-3.138Zm0 4.038a1.57 1.57 0 1 1 0 3.139 1.57 1.57 0 0 1 0-3.139Zm0 4.04a1.57 1.57 0 1 1-.001 3.14 1.57 1.57 0 0 1 .001-3.14Zm0 4.04a1.568 1.568 0 1 1 .001 3.136 1.568 1.568 0 0 1-.001-3.137ZM52.3 56.254a1.57 1.57 0 1 1 .002 3.136 1.57 1.57 0 0 1-.002-3.136Zm0 4.04a1.57 1.57 0 0 1 1.571 1.568 1.57 1.57 0 0 1-3.14 0 1.57 1.57 0 0 1 1.569-1.568Zm0 4.038a1.571 1.571 0 1 1 0 3.14 1.571 1.571 0 0 1 0-3.14Zm0 4.04a1.57 1.57 0 1 1 .003 3.135 1.57 1.57 0 0 1-.003-3.135Zm-4.037-8.078a1.57 1.57 0 1 1-.001 3.135 1.57 1.57 0 0 1 .001-3.135Zm0 4.038a1.57 1.57 0 0 1 0 3.14 1.57 1.57 0 0 1 0-3.14Z" fill="#363636"></path></svg><svg fill="none" viewBox="0 0 160 160" id="catalog-categories-cameras"><path d="M97.349 37.49c0-.736-.578-1.49-1.311-1.49H53.053c-.733 0-1.381.754-1.381 1.49v3.522h45.676l.001-3.522Zm.853 80.319h-9.597v-10.383h-6.958v2.507H62.774c-.537-1.254-1.757-2.148-3.181-2.148H47.559c-1.917-.001-3.559 1.602-3.559 3.526v3.018c0 1.924 1.642 3.48 3.559 3.48h12.035c1.511 0 2.792-.896 3.269-2.326h18.785v2.326H72.13c-.533 0-1.01.437-1.01.972v3.172c0 .535.478 1.048 1.01 1.048h26.072c.533 0 .93-.513.93-1.048v-3.173c0-.535-.397-.971-.93-.971Zm6.464-69.419a7.037 7.037 0 0 0-6.771-5.05H51.148C47.25 43.34 44 46.449 44 50.361v46.9c0 3.912 3.25 7.121 7.148 7.121h46.747c3.898 0 7.126-3.209 7.126-7.121V86.915a23.228 23.228 0 0 0 10.001-19.164c-.001-8.079-4.132-15.181-10.356-19.361ZM56.238 98.151c-3.259 0-5.901-2.65-5.901-5.921 0-3.27 2.642-5.922 5.901-5.922s5.902 2.652 5.902 5.922c0 3.271-2.643 5.921-5.902 5.921Zm5.961-32.605a1.42 1.42 0 0 1-1.418 1.422h-8.94a1.42 1.42 0 0 1-1.418-1.422v-14.16a1.42 1.42 0 0 1 1.418-1.423h8.939a1.42 1.42 0 0 1 1.418 1.423l.001 14.16Zm29.563 22.312c-11.076 0-20.057-9.01-20.057-20.123 0-11.113 8.98-20.124 20.057-20.124 11.077 0 20.058 9.01 20.058 20.124 0 11.114-8.981 20.123-20.058 20.123Z" fill="#363636"></path><path d="M91.762 79.964c6.731 0 12.188-5.475 12.188-12.229s-5.457-12.229-12.188-12.229c-6.731 0-12.188 5.475-12.188 12.229s5.457 12.229 12.188 12.229Zm-16.2-10.793a1.435 1.435 0 1 0 0-2.87 1.435 1.435 0 0 0 0 2.87Zm32.401 0a1.435 1.435 0 1 0 0-2.87 1.435 1.435 0 0 0 0 2.87ZM83.109 55.429a1.435 1.435 0 1 0 0-2.87 1.435 1.435 0 0 0 0 2.87Zm17.306 27.483c.79 0 1.43-.643 1.43-1.436 0-.793-.64-1.436-1.43-1.436-.79 0-1.43.643-1.43 1.436 0 .793.64 1.436 1.43 1.436ZM99.697 55a1.435 1.435 0 1 0 0-2.87 1.435 1.435 0 0 0 0 2.87ZM83.828 83.341a1.435 1.435 0 1 0 0-2.87 1.435 1.435 0 0 0 0 2.87Z" fill="#363636"></path></svg><svg fill="none" viewBox="0 0 160 160" id="catalog-categories-monopods"><path d="M119.821 47.011H40.33a3.188 3.188 0 0 0-3.188 3.188v46.413a3.187 3.187 0 0 0 3.188 3.189h79.492a3.188 3.188 0 0 0 3.189-3.189V50.199a3.189 3.189 0 0 0-3.19-3.188ZM45.392 80.236h-.226a3.19 3.19 0 0 1-3.189-3.189v-7.283a3.188 3.188 0 0 1 3.189-3.188h.226v13.66Zm61.231 15.172H50.341V51.402h56.282v44.006Zm8.777-17.856a4.146 4.146 0 0 1-4.146-4.147 4.146 4.146 0 1 1 4.146 4.147ZM91.654 43H68.497v2.758h23.157V43Zm-8.046 64.861v-2.973h8.046v-2.758H68.498v2.758h8.045v35.246a6.068 6.068 0 0 0-3.635 5.559V160h14.335v-14.307a6.062 6.062 0 0 0-3.636-5.557v-27.99h4.796l5.051 1.213v-6.711l-5.051 1.213h-4.795Z" fill="#363636"></path></svg><svg fill="none" viewBox="0 0 160 160" id="catalog-categories-quadcopters"><path d="M26.05 45.26c-5.54.49-10.21 1.6-11.47 2.67-.73.62-.73.62-.24 1.16.65.72 3.72 1.64 7.25 2.23 4 .67 12.51.7 13.72.05 1.22-.66 1.63-1.4 1.63-2.98 0-1.62-.62-2.41-2.22-2.85-1.45-.39-5.78-.54-8.67-.28Zm13.72.23c-.12.28-.25 2.1-.25 4.11 0 4.06.15 3.78-2.2 3.93l-1.03.08-.25 5.09-1.2.28c-2.57.67-3.99 2.6-3.78 5.3.13 1.92 1.03 3.34 2.58 4.08 1.1.52 1.47.54 11.24.54 5.55 0 10.14.08 10.19.18.05.13-1.1 9.4-2.58 20.64-1.44 11.23-2.68 21-2.7 21.67-.06 1.61.82 2.62 2.34 2.62 1.24 0 2.01-.64 2.32-1.9.13-.52 1.5-10.34 3.02-21.83a727.78 727.78 0 0 1 2.94-20.86c.1 0 1.08 1.4 2.2 3.13 2.93 4.63 2.4 4.32 7.63 4.32h4.36v5.63l-5.14.08c-4.72.07-5.2.12-5.88.61-1.57 1.16-1.62 1.42-1.62 10.98 0 9.53.02 9.79 1.52 11.05l.85.7H95.7l.85-.7c1.5-1.26 1.52-1.52 1.52-11.05 0-9.56-.05-9.82-1.63-10.98-.67-.49-1.16-.54-5.88-.61l-5.13-.08v-5.63h4.36c5.23 0 4.7.3 7.63-4.32a25.53 25.53 0 0 1 2.2-3.13c.07 0 1.42 9.4 2.94 20.86 1.52 11.5 2.89 21.31 3.02 21.83.3 1.26 1.08 1.9 2.32 1.9 1.52 0 2.4-1 2.34-2.62-.02-.67-1.26-10.44-2.7-21.67a899.97 899.97 0 0 1-2.58-20.64c.05-.1 4.64-.18 10.19-.18 9.77 0 10.13-.02 11.24-.54 1.55-.74 2.45-2.16 2.58-4.08a4.75 4.75 0 0 0-3.8-5.3L124 58.7l-.26-5.09-1.03-.08c-2.34-.15-2.2.13-2.2-3.93 0-2-.12-3.83-.25-4.11-.2-.36-.54-.49-1.37-.49-.61 0-1.23.13-1.42.3-.2.21-.3 1.47-.3 3.94 0 2.47-.1 3.73-.31 3.93-.18.18-.9.31-1.65.31-1.63 0-1.66.05-1.66 3.11v2.29H46.48v-2.29c0-3.06-.02-3.1-1.65-3.1-.75 0-1.47-.14-1.65-.32-.2-.2-.31-1.46-.31-3.93s-.1-3.73-.3-3.93c-.19-.18-.81-.31-1.43-.31-.82 0-1.16.13-1.37.49ZM82.62 85.6c2.89.9 5.39 3.4 6.16 6.17.44 1.54.31 4.21-.28 5.78-.7 1.87-2.69 4-4.57 4.94-1.29.64-1.75.71-3.92.71-2.16 0-2.63-.07-3.92-.71a10.22 10.22 0 0 1-4.56-4.94c-.6-1.57-.73-4.24-.29-5.78a9.58 9.58 0 0 1 6.06-6.17 7.56 7.56 0 0 1 5.32 0Z" fill="#363636"></path><path d="M77.8 89.44c-2.04.92-3.51 3.65-3.07 5.73a5.43 5.43 0 0 0 8 3.7 5.3 5.3 0 0 0 2.44-5.78 5.38 5.38 0 0 0-5.16-4.14c-.64 0-1.62.23-2.22.49ZM50.1 45.15c-3.93.67-4.52 1.14-4.52 3.45 0 1.82.46 2.41 2.27 2.95 1.55.47 7.17.52 10.5.13 6.86-.82 11.32-2.54 9.7-3.75-1.27-.9-4.9-1.88-9.06-2.39-2.47-.3-8-.54-8.9-.39Zm53.38.11c-6.31.59-11.86 2.08-11.86 3.18 0 1.73 7.84 3.47 15.63 3.5 5.8 0 7.2-.64 7.2-3.34 0-1.83-.62-2.62-2.38-3.09-1.65-.4-5.67-.51-8.59-.25Zm23.3.02c-1.78.23-3.02.77-3.43 1.5-.4.76-.31 2.9.15 3.57.93 1.3 1.65 1.46 7.07 1.46 3.66 0 5.8-.13 7.87-.49 3.53-.59 6.6-1.51 7.24-2.23.5-.54.5-.54-.23-1.16-1.34-1.13-5.96-2.18-11.92-2.67-3.48-.29-4.48-.29-6.75.02Z" fill="#363636"></path></svg><svg fill="none" viewBox="0 0 160 160" id="catalog-categories-virtual"><path d="M116.13 85.64V73c0-1.3 1.05-2.37 2.34-2.37l8.32 1.58v-8.19c0-2.35-1.7-3.43-4.2-4.26L99.4 53.17c1.62 1.4 1.9 2.05 1.9 4.4v45.21c0 2.36-.46 4.07-1.97 5.21l23.26-7.06c2.4-.84 4.2-4.22 4.2-6.58v-7.91l-8.32 1.57a2.35 2.35 0 0 1-2.34-2.37Z" fill="#363636"></path><path d="m127.13 73.98-7.6-1.45c-1 0-1.82.83-1.82 1.86v9.86c0 1.03.81 1.86 1.82 1.86l7.6-1.44c1.15-.41 1.82-.82 1.82-1.85v-6.99c0-1.02-.76-1.5-1.82-1.85Zm-27.96-16.5c0-5.08-4.23-4.46-4.23-4.46s-57.1 4.72-60.1 5.13c-3 .4-2.84 4.38-2.84 4.38v36.28c0 3.75 2.6 3.75 2.6 3.75l16.48 1.4L59.2 92.3s1.11-1.83 2.5-1.83c1.4 0 2.44 1.86 2.44 1.86l9.06 13.52s18.9 1.91 22.52 1.91c3.63 0 3.44-5.02 3.44-5.02V57.48ZM44.98 90.2c-3.7 0-6.7-4.6-6.7-10.27 0-5.68 3-10.28 6.7-10.28s6.7 4.6 6.7 10.28c0 5.67-3 10.27-6.7 10.27Zm36.16 1.43c-4.66 0-8.44-5.24-8.44-11.7 0-6.47 3.78-11.7 8.44-11.7s8.44 5.23 8.44 11.7c0 6.46-3.78 11.7-8.44 11.7Z" fill="#363636"></path></svg><svg fill="none" viewBox="0 0 160 160" id="catalog-categories-watches"><path d="M106.5 63.2h-1.52v-4.64a9.16 9.16 0 0 0-9.08-9.19H61.08c-5 0-9.08 4.14-9.08 9.19v42.86a9.16 9.16 0 0 0 9.08 9.19H95.9c5 0 9.08-4.13 9.08-9.19v-3.41h1.52c.41 0 .75-.34.75-.76V83.47a.76.76 0 0 0-.75-.77h-1.52v-8.79h1.52c.83 0 1.5-.69 1.5-1.53v-7.65c0-.84-.67-1.53-1.5-1.53Zm-20.42-3.11c2.93 0 5.3 2.4 5.3 5.36a5.33 5.33 0 0 1-5.3 5.35c-2.92 0-5.3-2.4-5.3-5.35a5.33 5.33 0 0 1 5.3-5.36Zm-15.14 0c2.93 0 5.3 2.4 5.3 5.36a5.33 5.33 0 0 1-5.3 5.35c-2.92 0-5.3-2.4-5.3-5.35a5.33 5.33 0 0 1 5.3-5.36ZM57.3 80.39a5.33 5.33 0 0 1 5.3-5.35c2.92 0 5.3 2.4 5.3 5.36a5.33 5.33 0 0 1-5.3 5.35c-2.93 0-5.3-2.4-5.3-5.35Zm13.64 19.5c-2.92 0-5.3-2.4-5.3-5.35a5.33 5.33 0 0 1 5.3-5.36c2.93 0 5.3 2.4 5.3 5.36a5.33 5.33 0 0 1-5.3 5.35Zm1.5-19.9a6.09 6.09 0 0 1 6.05-6.12 6.09 6.09 0 0 1 6.06 6.12 6.09 6.09 0 0 1-6.06 6.13 6.1 6.1 0 0 1-6.05-6.13Zm13.64 19.9c-2.92 0-5.3-2.4-5.3-5.35a5.33 5.33 0 0 1 5.3-5.36c2.93 0 5.3 2.4 5.3 5.36a5.33 5.33 0 0 1-5.3 5.35Zm8.3-14.13c-2.92 0-5.3-2.4-5.3-5.36a5.33 5.33 0 0 1 5.3-5.36c2.93 0 5.3 2.4 5.3 5.36a5.33 5.33 0 0 1-5.3 5.36ZM61.65 46.31h33.68c.85 0 1.44-.68 1.3-1.51l-1.6-10.77A3.68 3.68 0 0 0 91.5 31H65.47a3.68 3.68 0 0 0-3.51 3.03L60.34 44.8c-.12.83.46 1.51 1.3 1.51Zm33.68 67.36H61.65c-.85 0-1.43.68-1.3 1.52l1.6 10.76a3.68 3.68 0 0 0 3.52 3.03H91.5a3.68 3.68 0 0 0 3.52-3.02l1.62-10.77a1.28 1.28 0 0 0-1.3-1.52Z" fill="#363636"></path></svg><svg fill="none" viewBox="0 0 16 16" id="header-site-search"><path d="m15.7 14.3-3.1-3.1C13.5 10 14 8.6 14 7c0-3.9-3.1-7-7-7S0 3.1 0 7s3.1 7 7 7c1.6 0 3-.5 4.2-1.4l3.1 3.1c.2.2.4.3.7.3.6 0 1-.4 1-1 0-.2-.1-.5-.3-.7ZM2 7c0-2.8 2.2-5 5-5s5 2.2 5 5-2.2 5-5 5-5-2.2-5-5Z" fill="#000"></path></svg><svg fill="none" viewBox="0 0 16 14" id="header-user-cart"><path d="m15.3 5-3.5.2L8.6.3C8.5.1 8.2 0 8 0c-.2 0-.5.1-.6.3L4.2 5.2H.7c-.4 0-.7.3-.7.7v.2l1.9 6.8c.2.7.7 1.1 1.4 1.1h9.4c.7 0 1.2-.4 1.4-1.1L16 6v-.2c0-.4-.3-.8-.7-.8ZM8 1.9l2.2 3.2H5.9L8 1.9Z" fill="#000"></path></svg><svg fill="none" viewBox="0 0 10 12" id="header-user-compare"><path d="M6 0H4v12h2V0ZM2 4H0v8h2V4Zm8-1H8v9h2V3Z" fill="#000"></path></svg><svg fill="none" viewBox="0 0 15 12" id="header-user-login"><path d="M1 12h13c-.2-2.6-2.1-4.8-4.7-5.5 1-.6 1.7-1.7 1.7-3C11 1.6 9.4 0 7.5 0S4 1.6 4 3.5c0 1.3.7 2.4 1.7 3C3.1 7.2 1.2 9.4 1 12Z" fill="#000"></path></svg><svg fill="none" viewBox="0 0 20 60" id="main-slider-arrow"><path d="M20 60h-3.5L0 30 16.5 0H20L3.8 30 20 60Z" fill="#000"></path></svg><svg fill="none" viewBox="0 0 47 32" id="on-order-delivery"><path d="m46.7 15.4-6.5-8.2c-.3-.4-.7-.6-1.2-.6h-8.3V1.5C30.7.7 30 0 29.2 0H1.5C.7 0 0 .7 0 1.5S.7 3 1.5 3h26.2v21.7H15.8c-.6-1.9-2.4-3.3-4.5-3.3-2.6 0-4.8 2.2-4.8 4.8 0 2.6 2.2 4.8 4.8 4.8 2.1 0 3.9-1.4 4.5-3.3h13.4c.8 0 1.5-.7 1.5-1.5V9.6h7.6l5.7 7.3v7.9h-2.2c-.6-1.9-2.4-3.3-4.5-3.3-2.6 0-4.8 2.2-4.8 4.8 0 2.6 2.1 4.8 4.8 4.8 2.1 0 3.9-1.4 4.5-3.3h3.7c.8 0 1.5-.7 1.5-1.5v-9.9c0-.4-.1-.7-.3-1ZM11.3 28c-1 0-1.8-.8-1.8-1.8s.8-1.8 1.8-1.8 1.8.8 1.8 1.8-.9 1.8-1.8 1.8Zm26.1 0c-1 0-1.8-.8-1.8-1.8s.8-1.8 1.8-1.8 1.8.8 1.8 1.8-.9 1.8-1.8 1.8Z" fill="#000"></path><path d="M19.4 9.6c.8 0 1.5-.7 1.5-1.5s-.7-1.5-1.5-1.5H4.8c-.8 0-1.5.7-1.5 1.5S4 9.6 4.8 9.6h14.6Zm-1.7 5.1c0-.8-.7-1.5-1.5-1.5H1.5c-.8 0-1.5.7-1.5 1.5s.7 1.5 1.5 1.5h14.7c.8 0 1.5-.7 1.5-1.5Z" fill="#000"></path></svg><svg fill="none" viewBox="0 0 2 12" id="on-order-info"><path d="M2 0H0v2h2V0Zm0 4H0v8h2V4Z" fill="#000"></path></svg><svg fill="none" viewBox="0 0 16 16" id="subscription-tick"><path d="M15.5.5 5.9 9.8 1.5 5.5v4.7L6 14.5l9.5-9.3V.5Z" fill="#08AF00"></path></svg><svg fill="none" viewBox="0 0 139 165" id="tabs-delivery"><path d="M93.133 39.267c8.121 0 14.945-5.542 16.9-13.05l5.467.815a2.159 2.159 0 0 0 2.451-1.816 2.157 2.157 0 0 0-1.816-2.451l-5.541-.825c.002-.046.004-.091.004-.138 0-.182-.006-.362-.014-.542 0 0-.451-6.518-1.074-9.237-.621-2.72-2.535-3.296-2.535-3.296-9.77-2.212-19.772-2.438-22.375-2.438-2.603 0-3.158 1.332-3.158 1.332l-3.15 4.996-.01-.003c-.076.122-.146.245-.219.368l-.027.043a17.387 17.387 0 0 0-2.367 8.777c-.001 9.646 7.819 17.465 17.464 17.465Zm38.402 39.309v-.002l-26.742-2.168-9.246-21.112s-.461-2.774-6.008-8.476c-5.55-5.702-16.8-3.39-16.8-3.39s-23.885 4.469-31.744 6.318c-7.86 1.85-8.168 9.863-8.168 9.863l-.632 4.519-15.178-2.941a3.012 3.012 0 0 0-3.516 2.374L6.09 101.803a3.008 3.008 0 0 0 2.375 3.516l51.196 9.923c.115.022.23.024.346.033h.002c-.728.104-1.291-.035-1.291-.035l-9.4-1.849-3.082 17.105-23.56 20.363a7.43 7.43 0 1 0 9.857 11.086s27.725-22.05 29.575-23.591c1.85-1.54 2.773-3.853 2.773-3.853s4.541-13.948 5.779-16.874c.848-2.004 4.932-1.079 4.932-1.079l22.885 8.631 7.615 29.062c.082.63.242 1.234.473 1.804h.002a7.428 7.428 0 0 0 14.112-4.512c-.842-4.965-4.604-27.046-5.561-31.826-1.078-5.394-4.621-6.934-4.621-6.934s-21.268-11.558-22.654-12.329c-1.387-.77-1.078-2.774-1.078-2.774l3.93-14.331 2.773 5.856s1.619 3.274 4.084 3.391l33.357.82a7.43 7.43 0 0 0 7.43-7.431 7.43 7.43 0 0 0-6.804-7.399ZM60.104 63.307l-1.79 5.88 9.899 1.919-20.214-3.917.548-2.496 11.557-1.386Zm-2.25 45.473-45.303-8.781 6.27-32.353 12.542 2.431-1.618 11.567-.64 4.406c-.005.026-.008.056-.012.082l-.018.127h.002a7.43 7.43 0 0 0 7.367 8.38 7.428 7.428 0 0 0 7.368-8.366l2.9-13.223 17.414 3.374-6.271 32.356ZM25.05 17.508h38.027c1.1 0 2-.896 2-1.99 0-1.094-.9-1.99-2-1.99H25.05c-1.1 0-2 .896-2 1.99 0 1.094.9 1.99 2 1.99Zm13.03 6.017c-1.1 0-2 .896-2 1.99 0 1.094.9 1.99 2 1.99h22.959c1.1 0 2-.896 2-1.99a2 2 0 0 0-2-1.99h-22.96Z" fill="#fff"></path><path d="M87.098 33.232c8.121 0 14.945-5.542 16.9-13.049l5.467.814a2.159 2.159 0 0 0 2.451-1.816 2.157 2.157 0 0 0-1.816-2.451l-5.541-.825c.002-.046.004-.091.004-.138 0-.182-.006-.362-.014-.542 0 0-.451-6.518-1.074-9.237-.621-2.719-2.535-3.296-2.535-3.296C91.17.48 81.168.254 78.564.254c-2.604 0-3.158 1.332-3.158 1.332l-3.15 4.996-.01-.003c-.076.121-.146.245-.219.368L72 6.99a17.387 17.387 0 0 0-2.367 8.777c0 9.646 7.82 17.465 17.465 17.465ZM125.5 72.541v-.002l-26.742-2.168-9.246-21.112s-.461-2.774-6.008-8.476c-5.549-5.702-16.799-3.39-16.799-3.39s-23.886 4.47-31.745 6.317c-7.86 1.85-8.168 9.863-8.168 9.863L23.71 75.61l-.64 4.406c-.005.026-.008.056-.012.082l-.018.127h.002a7.43 7.43 0 0 0 7.367 8.38 7.428 7.428 0 0 0 7.368-8.366l4.734-21.58 11.557-1.387-1.789 5.88 9.898 1.92a3.01 3.01 0 0 1 2.375 3.516L57.14 106.83a3.012 3.012 0 0 1-2.948 2.43c-.072 0-.146-.016-.22-.021-.728.104-1.291-.035-1.291-.035l-9.4-1.849-3.082 17.105-23.56 20.363a7.43 7.43 0 1 0 9.857 11.086s27.725-22.05 29.575-23.591c1.85-1.54 2.773-3.853 2.773-3.853s4.541-13.948 5.779-16.874c.848-2.004 4.932-1.079 4.932-1.079l22.885 8.631 7.615 29.062c.082.63.242 1.234.473 1.804h.002a7.428 7.428 0 0 0 14.112-4.512c-.842-4.965-4.604-27.046-5.561-31.826-1.078-5.394-4.621-6.934-4.621-6.934S83.193 95.182 81.807 94.41c-1.387-.77-1.078-2.774-1.078-2.774l3.93-14.33 2.773 5.855s1.619 3.274 4.084 3.391l33.357.82a7.43 7.43 0 0 0 .627-14.83Z" fill="#3A3A3A"></path><path d="M53.97 109.644h.003c.073.006.147.021.22.021 1.407 0 2.67-1 2.948-2.43l7.412-38.243a3.01 3.01 0 0 0-2.375-3.517l-20.214-3.917-1.286 5.862 17.413 3.374-6.271 32.354-45.304-8.779 6.27-32.353 12.542 2.431.832-5.95-15.178-2.942a3.012 3.012 0 0 0-3.516 2.374L.055 96.173a3.008 3.008 0 0 0 2.375 3.516l51.196 9.923c.114.022.229.023.345.032Z" fill="#F0C42E"></path><path d="M59.042 9.482a2 2 0 0 1-2 1.99H19.015c-1.1 0-2-.896-2-1.99 0-1.094.9-1.99 2-1.99h38.027c1.1 0 2 .896 2 1.99Zm-2.038 9.998c0 1.094-.9 1.99-2 1.99h-22.96c-1.1 0-2-.896-2-1.99a2 2 0 0 1 2-1.99h22.959c1.1 0 2 .896 2 1.99Z" fill="#F0C52E"></path></svg></svg>