<svg xmlns="http://www.w3.org/2000/svg"><style>:root svg:not(:target){display:none}</style><svg fill="none" viewBox="0 0 4 8" id="breadcrumbs-divider"><path d="m3.8 3.6-3-3C.6.4.3.4.1.6c-.1.2-.1.6 0 .8L2.7 4 .1 6.6c-.1.2-.1.5 0 .7.1.1.3.2.4.2.1 0 .3-.1.4-.1l3-3c0-.1.1-.3.1-.4 0-.1-.1-.3-.2-.4Z" fill="#000"></path></svg><svg fill="none" viewBox="0 0 10 10" id="cart-popover-cross"><path d="M10 .91 9.09 0 5 4.09.91 0 0 .91 4.09 5 0 9.09l.91.91L5 5.91 9.09 10l.91-.91L5.91 5 10 .91Z" fill="#fff"></path></svg><svg fill="none" viewBox="0 0 14 6" id="cart-popover-triangle"><path d="M14 6H0l7-6 7 6Z" fill="#000"></path></svg><svg fill="none" viewBox="0 0 160 160" id="catalog-categories-bracelets"><path d="M124.967 51.074c.752 1.441 1.209 3.08 1.209 4.818v21.102c0 4.616-3.092 8.527-7.246 9.9-1.325 3.987-3.778 7.854-8.051 10.432-8.676 5.231-31.124 4.837-31.198 4.837-.078 0-22.513.395-31.189-4.837-4.216-2.545-6.708-6.347-8.042-10.279-4.418-1.209-7.756-5.25-7.756-10.053v-21.1c0-1.689.427-3.283 1.139-4.694C30.17 52.11 26 53.918 26 57.434v29.983c0 10.251 11.839 24.433 53.657 24.433 41.82 0 53.657-14.182 53.657-24.433V57.434c-.001-3.684-4.576-5.494-8.347-6.36Z" fill="#363636"></path><path d="M46.561 85.46h65.523c5.564 0 10.074-4.514 10.074-10.078V56.935c0-5.563-4.51-10.075-10.074-10.075H46.561c-5.564 0-10.075 4.511-10.075 10.075v18.447c0 5.564 4.511 10.077 10.075 10.077Zm63.134-28.992a1.57 1.57 0 1 1 0 3.139 1.57 1.57 0 0 1 0-3.139Zm0 4.04a1.569 1.569 0 1 1 0 3.137 1.569 1.569 0 0 1 0-3.138Zm0 4.038a1.568 1.568 0 1 1 .001 3.137 1.568 1.568 0 0 1-.001-3.137Zm0 3.827a1.57 1.57 0 1 1-.001 3.14 1.57 1.57 0 0 1 .001-3.14Zm0 4.04a1.568 1.568 0 1 1 .001 3.136 1.568 1.568 0 0 1-.001-3.137Zm-4.039-15.945c.867 0 1.568.703 1.568 1.57a1.568 1.568 0 1 1-3.136 0c0-.868.703-1.57 1.568-1.57Zm0 15.944a1.568 1.568 0 1 1 0 3.135 1.568 1.568 0 0 1 0-3.135Zm-4.037-15.944a1.57 1.57 0 1 1-.003 3.14 1.57 1.57 0 0 1 .003-3.14Zm0 4.04a1.57 1.57 0 1 1-.003 3.138 1.57 1.57 0 0 1 .003-3.139Zm0 4.038a1.569 1.569 0 1 1-.002 3.138 1.569 1.569 0 0 1 .002-3.138Zm0 3.827a1.568 1.568 0 1 1 0 3.138 1.568 1.568 0 0 1 0-3.138Zm0 4.04a1.569 1.569 0 1 1-.002 3.137 1.569 1.569 0 0 1 .002-3.138Zm-7.654-15.945c.867 0 1.568.703 1.568 1.57a1.568 1.568 0 1 1-3.136 0 1.568 1.568 0 0 1 1.568-1.57Zm0 8.078c.867 0 1.568.702 1.568 1.57a1.568 1.568 0 1 1-1.568-1.57Zm0 3.881a1.569 1.569 0 1 1-.002 3.136 1.569 1.569 0 0 1 .002-3.136Zm0 3.985a1.568 1.568 0 1 1 0 3.135 1.568 1.568 0 0 1 0-3.135Zm-4.039-15.944a1.57 1.57 0 1 1 0 3.14 1.57 1.57 0 0 1 0-3.14Zm0 8.078a1.57 1.57 0 1 1 .001 3.139 1.57 1.57 0 0 1-.001-3.139Zm0 7.866a1.57 1.57 0 1 1 .001 3.139 1.57 1.57 0 0 1-.001-3.139Zm-4.038-15.944a1.57 1.57 0 0 1 0 3.14 1.568 1.568 0 0 1-1.568-1.57 1.567 1.567 0 0 1 1.568-1.57Zm0 4.04a1.57 1.57 0 1 1-.001 3.135 1.57 1.57 0 0 1 .001-3.136Zm0 4.038a1.57 1.57 0 1 1-.001 3.14 1.57 1.57 0 0 1 .001-3.14Zm0 7.866a1.57 1.57 0 0 1 0 3.137 1.569 1.569 0 0 1 0-3.137Zm-8.29-15.944a1.57 1.57 0 1 1 0 3.139 1.57 1.57 0 0 1 0-3.139Zm0 4.04a1.569 1.569 0 1 1 0 3.137 1.569 1.569 0 0 1 0-3.138Zm0 4.038a1.568 1.568 0 1 1 .001 3.137 1.568 1.568 0 0 1-.001-3.137Zm0 3.881a1.568 1.568 0 1 1 0 3.137 1.569 1.569 0 0 1 0-3.137Zm0 3.985a1.568 1.568 0 1 1 .001 3.137 1.568 1.568 0 0 1-.001-3.137Zm-4.039-11.905a1.568 1.568 0 1 1 0 3.136 1.568 1.568 0 0 1 0-3.136Zm-8.502-.212a1.57 1.57 0 1 1-.001 3.135 1.57 1.57 0 0 1 .001-3.135Zm0 4.038a1.57 1.57 0 1 1-.003 3.141 1.57 1.57 0 0 1 .003-3.14Zm-4.039-8.078a1.57 1.57 0 1 1-.003 3.14 1.57 1.57 0 0 1 .003-3.14Zm0 4.04a1.57 1.57 0 1 1-.003 3.139 1.57 1.57 0 0 1 .003-3.139Zm0 4.038a1.57 1.57 0 1 1-.003 3.14 1.57 1.57 0 0 1 .003-3.14Zm0 4.04a1.569 1.569 0 1 1-.001 3.137 1.569 1.569 0 0 1 .001-3.137Zm-4.254-8.078a1.569 1.569 0 1 1 0 3.138 1.569 1.569 0 0 1 0-3.138Zm0 4.038a1.57 1.57 0 1 1 0 3.139 1.57 1.57 0 0 1 0-3.139Zm0 4.04a1.57 1.57 0 1 1-.001 3.14 1.57 1.57 0 0 1 .001-3.14Zm0 4.04a1.568 1.568 0 1 1 .001 3.136 1.568 1.568 0 0 1-.001-3.137ZM52.3 56.254a1.57 1.57 0 1 1 .002 3.136 1.57 1.57 0 0 1-.002-3.136Zm0 4.04a1.57 1.57 0 0 1 1.571 1.568 1.57 1.57 0 0 1-3.14 0 1.57 1.57 0 0 1 1.569-1.568Zm0 4.038a1.571 1.571 0 1 1 0 3.14 1.571 1.571 0 0 1 0-3.14Zm0 4.04a1.57 1.57 0 1 1 .003 3.135 1.57 1.57 0 0 1-.003-3.135Zm-4.037-8.078a1.57 1.57 0 1 1-.001 3.135 1.57 1.57 0 0 1 .001-3.135Zm0 4.038a1.57 1.57 0 0 1 0 3.14 1.57 1.57 0 0 1 0-3.14Z" fill="#363636"></path></svg><svg fill="none" viewBox="0 0 160 160" id="catalog-categories-cameras"><path d="M97.349 37.49c0-.736-.578-1.49-1.311-1.49H53.053c-.733 0-1.381.754-1.381 1.49v3.522h45.676l.001-3.522Zm.853 80.319h-9.597v-10.383h-6.958v2.507H62.774c-.537-1.254-1.757-2.148-3.181-2.148H47.559c-1.917-.001-3.559 1.602-3.559 3.526v3.018c0 1.924 1.642 3.48 3.559 3.48h12.035c1.511 0 2.792-.896 3.269-2.326h18.785v2.326H72.13c-.533 0-1.01.437-1.01.972v3.172c0 .535.478 1.048 1.01 1.048h26.072c.533 0 .93-.513.93-1.048v-3.173c0-.535-.397-.971-.93-.971Zm6.464-69.419a7.037 7.037 0 0 0-6.771-5.05H51.148C47.25 43.34 44 46.449 44 50.361v46.9c0 3.912 3.25 7.121 7.148 7.121h46.747c3.898 0 7.126-3.209 7.126-7.121V86.915a23.228 23.228 0 0 0 10.001-19.164c-.001-8.079-4.132-15.181-10.356-19.361ZM56.238 98.151c-3.259 0-5.901-2.65-5.901-5.921 0-3.27 2.642-5.922 5.901-5.922s5.902 2.652 5.902 5.922c0 3.271-2.643 5.921-5.902 5.921Zm5.961-32.605a1.42 1.42 0 0 1-1.418 1.422h-8.94a1.42 1.42 0 0 1-1.418-1.422v-14.16a1.42 1.42 0 0 1 1.418-1.423h8.939a1.42 1.42 0 0 1 1.418 1.423l.001 14.16Zm29.563 22.312c-11.076 0-20.057-9.01-20.057-20.123 0-11.113 8.98-20.124 20.057-20.124 11.077 0 20.058 9.01 20.058 20.124 0 11.114-8.981 20.123-20.058 20.123Z" fill="#363636"></path><path d="M91.762 79.964c6.731 0 12.188-5.475 12.188-12.229s-5.457-12.229-12.188-12.229c-6.731 0-12.188 5.475-12.188 12.229s5.457 12.229 12.188 12.229Zm-16.2-10.793a1.435 1.435 0 1 0 0-2.87 1.435 1.435 0 0 0 0 2.87Zm32.401 0a1.435 1.435 0 1 0 0-2.87 1.435 1.435 0 0 0 0 2.87ZM83.109 55.429a1.435 1.435 0 1 0 0-2.87 1.435 1.435 0 0 0 0 2.87Zm17.306 27.483c.79 0 1.43-.643 1.43-1.436 0-.793-.64-1.436-1.43-1.436-.79 0-1.43.643-1.43 1.436 0 .793.64 1.436 1.43 1.436ZM99.697 55a1.435 1.435 0 1 0 0-2.87 1.435 1.435 0 0 0 0 2.87ZM83.828 83.341a1.435 1.435 0 1 0 0-2.87 1.435 1.435 0 0 0 0 2.87Z" fill="#363636"></path></svg><svg fill="none" viewBox="0 0 160 160" id="catalog-categories-monopods"><path d="M119.821 47.011H40.33a3.188 3.188 0 0 0-3.188 3.188v46.413a3.187 3.187 0 0 0 3.188 3.189h79.492a3.188 3.188 0 0 0 3.189-3.189V50.199a3.189 3.189 0 0 0-3.19-3.188ZM45.392 80.236h-.226a3.19 3.19 0 0 1-3.189-3.189v-7.283a3.188 3.188 0 0 1 3.189-3.188h.226v13.66Zm61.231 15.172H50.341V51.402h56.282v44.006Zm8.777-17.856a4.146 4.146 0 0 1-4.146-4.147 4.146 4.146 0 1 1 4.146 4.147ZM91.654 43H68.497v2.758h23.157V43Zm-8.046 64.861v-2.973h8.046v-2.758H68.498v2.758h8.045v35.246a6.068 6.068 0 0 0-3.635 5.559V160h14.335v-14.307a6.062 6.062 0 0 0-3.636-5.557v-27.99h4.796l5.051 1.213v-6.711l-5.051 1.213h-4.795Z" fill="#363636"></path></svg><svg fill="none" viewBox="0 0 160 160" id="catalog-categories-quadcopters"><path d="M26.05 45.26c-5.54.49-10.21 1.6-11.47 2.67-.73.62-.73.62-.24 1.16.65.72 3.72 1.64 7.25 2.23 4 .67 12.51.7 13.72.05 1.22-.66 1.63-1.4 1.63-2.98 0-1.62-.62-2.41-2.22-2.85-1.45-.39-5.78-.54-8.67-.28Zm13.72.23c-.12.28-.25 2.1-.25 4.11 0 4.06.15 3.78-2.2 3.93l-1.03.08-.25 5.09-1.2.28c-2.57.67-3.99 2.6-3.78 5.3.13 1.92 1.03 3.34 2.58 4.08 1.1.52 1.47.54 11.24.54 5.55 0 10.14.08 10.19.18.05.13-1.1 9.4-2.58 20.64-1.44 11.23-2.68 21-2.7 21.67-.06 1.61.82 2.62 2.34 2.62 1.24 0 2.01-.64 2.32-1.9.13-.52 1.5-10.34 3.02-21.83a727.78 727.78 0 0 1 2.94-20.86c.1 0 1.08 1.4 2.2 3.13 2.93 4.63 2.4 4.32 7.63 4.32h4.36v5.63l-5.14.08c-4.72.07-5.2.12-5.88.61-1.57 1.16-1.62 1.42-1.62 10.98 0 9.53.02 9.79 1.52 11.05l.85.7H95.7l.85-.7c1.5-1.26 1.52-1.52 1.52-11.05 0-9.56-.05-9.82-1.63-10.98-.67-.49-1.16-.54-5.88-.61l-5.13-.08v-5.63h4.36c5.23 0 4.7.3 7.63-4.32a25.53 25.53 0 0 1 2.2-3.13c.07 0 1.42 9.4 2.94 20.86 1.52 11.5 2.89 21.31 3.02 21.83.3 1.26 1.08 1.9 2.32 1.9 1.52 0 2.4-1 2.34-2.62-.02-.67-1.26-10.44-2.7-21.67a899.97 899.97 0 0 1-2.58-20.64c.05-.1 4.64-.18 10.19-.18 9.77 0 10.13-.02 11.24-.54 1.55-.74 2.45-2.16 2.58-4.08a4.75 4.75 0 0 0-3.8-5.3L124 58.7l-.26-5.09-1.03-.08c-2.34-.15-2.2.13-2.2-3.93 0-2-.12-3.83-.25-4.11-.2-.36-.54-.49-1.37-.49-.61 0-1.23.13-1.42.3-.2.21-.3 1.47-.3 3.94 0 2.47-.1 3.73-.31 3.93-.18.18-.9.31-1.65.31-1.63 0-1.66.05-1.66 3.11v2.29H46.48v-2.29c0-3.06-.02-3.1-1.65-3.1-.75 0-1.47-.14-1.65-.32-.2-.2-.31-1.46-.31-3.93s-.1-3.73-.3-3.93c-.19-.18-.81-.31-1.43-.31-.82 0-1.16.13-1.37.49ZM82.62 85.6c2.89.9 5.39 3.4 6.16 6.17.44 1.54.31 4.21-.28 5.78-.7 1.87-2.69 4-4.57 4.94-1.29.64-1.75.71-3.92.71-2.16 0-2.63-.07-3.92-.71a10.22 10.22 0 0 1-4.56-4.94c-.6-1.57-.73-4.24-.29-5.78a9.58 9.58 0 0 1 6.06-6.17 7.56 7.56 0 0 1 5.32 0Z" fill="#363636"></path><path d="M77.8 89.44c-2.04.92-3.51 3.65-3.07 5.73a5.43 5.43 0 0 0 8 3.7 5.3 5.3 0 0 0 2.44-5.78 5.38 5.38 0 0 0-5.16-4.14c-.64 0-1.62.23-2.22.49ZM50.1 45.15c-3.93.67-4.52 1.14-4.52 3.45 0 1.82.46 2.41 2.27 2.95 1.55.47 7.17.52 10.5.13 6.86-.82 11.32-2.54 9.7-3.75-1.27-.9-4.9-1.88-9.06-2.39-2.47-.3-8-.54-8.9-.39Zm53.38.11c-6.31.59-11.86 2.08-11.86 3.18 0 1.73 7.84 3.47 15.63 3.5 5.8 0 7.2-.64 7.2-3.34 0-1.83-.62-2.62-2.38-3.09-1.65-.4-5.67-.51-8.59-.25Zm23.3.02c-1.78.23-3.02.77-3.43 1.5-.4.76-.31 2.9.15 3.57.93 1.3 1.65 1.46 7.07 1.46 3.66 0 5.8-.13 7.87-.49 3.53-.59 6.6-1.51 7.24-2.23.5-.54.5-.54-.23-1.16-1.34-1.13-5.96-2.18-11.92-2.67-3.48-.29-4.48-.29-6.75.02Z" fill="#363636"></path></svg><svg fill="none" viewBox="0 0 160 160" id="catalog-categories-virtual"><path d="M116.13 85.64V73c0-1.3 1.05-2.37 2.34-2.37l8.32 1.58v-8.19c0-2.35-1.7-3.43-4.2-4.26L99.4 53.17c1.62 1.4 1.9 2.05 1.9 4.4v45.21c0 2.36-.46 4.07-1.97 5.21l23.26-7.06c2.4-.84 4.2-4.22 4.2-6.58v-7.91l-8.32 1.57a2.35 2.35 0 0 1-2.34-2.37Z" fill="#363636"></path><path d="m127.13 73.98-7.6-1.45c-1 0-1.82.83-1.82 1.86v9.86c0 1.03.81 1.86 1.82 1.86l7.6-1.44c1.15-.41 1.82-.82 1.82-1.85v-6.99c0-1.02-.76-1.5-1.82-1.85Zm-27.96-16.5c0-5.08-4.23-4.46-4.23-4.46s-57.1 4.72-60.1 5.13c-3 .4-2.84 4.38-2.84 4.38v36.28c0 3.75 2.6 3.75 2.6 3.75l16.48 1.4L59.2 92.3s1.11-1.83 2.5-1.83c1.4 0 2.44 1.86 2.44 1.86l9.06 13.52s18.9 1.91 22.52 1.91c3.63 0 3.44-5.02 3.44-5.02V57.48ZM44.98 90.2c-3.7 0-6.7-4.6-6.7-10.27 0-5.68 3-10.28 6.7-10.28s6.7 4.6 6.7 10.28c0 5.67-3 10.27-6.7 10.27Zm36.16 1.43c-4.66 0-8.44-5.24-8.44-11.7 0-6.47 3.78-11.7 8.44-11.7s8.44 5.23 8.44 11.7c0 6.46-3.78 11.7-8.44 11.7Z" fill="#363636"></path></svg><svg fill="none" viewBox="0 0 160 160" id="catalog-categories-watches"><path d="M106.5 63.2h-1.52v-4.64a9.16 9.16 0 0 0-9.08-9.19H61.08c-5 0-9.08 4.14-9.08 9.19v42.86a9.16 9.16 0 0 0 9.08 9.19H95.9c5 0 9.08-4.13 9.08-9.19v-3.41h1.52c.41 0 .75-.34.75-.76V83.47a.76.76 0 0 0-.75-.77h-1.52v-8.79h1.52c.83 0 1.5-.69 1.5-1.53v-7.65c0-.84-.67-1.53-1.5-1.53Zm-20.42-3.11c2.93 0 5.3 2.4 5.3 5.36a5.33 5.33 0 0 1-5.3 5.35c-2.92 0-5.3-2.4-5.3-5.35a5.33 5.33 0 0 1 5.3-5.36Zm-15.14 0c2.93 0 5.3 2.4 5.3 5.36a5.33 5.33 0 0 1-5.3 5.35c-2.92 0-5.3-2.4-5.3-5.35a5.33 5.33 0 0 1 5.3-5.36ZM57.3 80.39a5.33 5.33 0 0 1 5.3-5.35c2.92 0 5.3 2.4 5.3 5.36a5.33 5.33 0 0 1-5.3 5.35c-2.93 0-5.3-2.4-5.3-5.35Zm13.64 19.5c-2.92 0-5.3-2.4-5.3-5.35a5.33 5.33 0 0 1 5.3-5.36c2.93 0 5.3 2.4 5.3 5.36a5.33 5.33 0 0 1-5.3 5.35Zm1.5-19.9a6.09 6.09 0 0 1 6.05-6.12 6.09 6.09 0 0 1 6.06 6.12 6.09 6.09 0 0 1-6.06 6.13 6.1 6.1 0 0 1-6.05-6.13Zm13.64 19.9c-2.92 0-5.3-2.4-5.3-5.35a5.33 5.33 0 0 1 5.3-5.36c2.93 0 5.3 2.4 5.3 5.36a5.33 5.33 0 0 1-5.3 5.35Zm8.3-14.13c-2.92 0-5.3-2.4-5.3-5.36a5.33 5.33 0 0 1 5.3-5.36c2.93 0 5.3 2.4 5.3 5.36a5.33 5.33 0 0 1-5.3 5.36ZM61.65 46.31h33.68c.85 0 1.44-.68 1.3-1.51l-1.6-10.77A3.68 3.68 0 0 0 91.5 31H65.47a3.68 3.68 0 0 0-3.51 3.03L60.34 44.8c-.12.83.46 1.51 1.3 1.51Zm33.68 67.36H61.65c-.85 0-1.43.68-1.3 1.52l1.6 10.76a3.68 3.68 0 0 0 3.52 3.03H91.5a3.68 3.68 0 0 0 3.52-3.02l1.62-10.77a1.28 1.28 0 0 0-1.3-1.52Z" fill="#363636"></path></svg><svg fill="none" viewBox="0 0 10 10" id="filter-tick"><path d="M10 0 3.1 6.6 0 3.6v3.3L3.2 10 10 3.3V0Z" fill="#000"></path></svg><svg fill="none" viewBox="0 0 115 33" id="footer-logo-developer"><path d="M0 12.9v2.6h2.5v-2.6H0Zm11.6-8.4c-1.6 0-2.8.7-3.6 1.7h-.1V0h-2v15.5h2v-5.3c0-2.1 1.3-3.6 3.3-3.6 1.8 0 2.9 1.4 2.9 3.2v5.7h2V9.4c.1-3-1.8-4.9-4.5-4.9Zm15 .3h-4.8V1.1h-2v3.8h-1.9v2h1.9v6c0 1.7 1 2.7 2.7 2.7h4.1v-2h-3.7c-.7 0-1.1-.4-1.1-1.1V6.8h4.8v-2Zm14.5-.2c-1.6 0-2.9.8-3.5 2.1h-.1c-.6-1.2-1.8-2.1-3.4-2.1-1.4 0-2.5.8-3.1 1.8h-.1V4.8H29v10.6h2V10c0-2 1-3.5 2.6-3.5 1.5 0 2.4 1 2.4 2.6v6.3h2V9.8c0-2.4 1.4-3.3 2.6-3.3 1.5 0 2.4 1 2.4 2.6v6.3h2V8.9c.1-2.5-1.4-4.3-3.9-4.3Zm6.7 8.1c0 1.7 1 2.7 2.8 2.7h2v-2h-1.7c-.7 0-1.1-.4-1.1-1.1V0h-2v12.7Zm-18.9 7c-.9-1.1-2.2-1.8-3.9-1.8-3.1 0-5.4 2.3-5.4 5.6s2.3 5.6 5.4 5.6c1.8 0 3-.8 3.8-1.9h.1v1.6h2V18.2h-2v1.5Zm-3.6 7.4c-2.2 0-3.6-1.6-3.6-3.6s1.4-3.6 3.6-3.6 3.6 1.6 3.6 3.6c0 1.9-1.4 3.6-3.6 3.6ZM44.2 22c-.5-2.4-2.6-4.1-5.4-4.1a5.4 5.4 0 0 0-5.6 5.6c0 3.1 2.2 5.6 5.6 5.6 2.8 0 4.9-1.8 5.4-4.2h-2.1a3.4 3.4 0 0 1-3.3 2.3c-2.2 0-3.6-1.6-3.6-3.6s1.4-3.6 3.6-3.6c1.6 0 2.8 1 3.3 2.2h2.1V22Zm10.9-2.3c-.9-1.1-2.2-1.8-3.9-1.8-3.1 0-5.4 2.3-5.4 5.6s2.3 5.6 5.4 5.6c1.8 0 3-.8 3.8-1.9h.1v1.6h2V18.2h-2v1.5Zm-3.6 7.4c-2.2 0-3.6-1.6-3.6-3.6s1.4-3.6 3.6-3.6 3.6 1.6 3.6 3.6c0 1.9-1.5 3.6-3.6 3.6Zm17.2-7.3c-.9-1.1-2.2-1.9-3.9-1.9-3.1 0-5.4 2.3-5.4 5.6s2.2 5.6 5.4 5.6c1.7 0 3-.8 3.8-1.8h.1v1.5h2V13.4h-2v6.4Zm-3.6 7.3c-2.2 0-3.6-1.6-3.6-3.6s1.4-3.6 3.6-3.6 3.6 1.6 3.6 3.6c-.1 2-1.5 3.6-3.6 3.6Zm13.2-9.2c-3.3 0-5.5 2.5-5.5 5.6 0 3 2.1 5.6 5.5 5.6 2.5 0 4.5-1.3 5.2-3.6h-2.1c-.5 1-1.6 1.6-3 1.6-1.9 0-3.3-1.3-3.4-2.9h8.8c.2-3.6-2-6.3-5.5-6.3Zm0 1.9c1.7 0 3 1 3.3 2.6h-6.5c.3-1.5 1.5-2.6 3.2-2.6Zm19.9-1.9c-1.6 0-2.9.8-3.6 2h-.1c-.6-1.2-1.8-2-3.4-2-1.4 0-2.5.7-3.1 1.8v-1.5h-1.9v10.6h2v-5.4c0-2 1-3.4 2.6-3.5 1.5 0 2.4 1 2.4 2.6v6.3h2v-5.6c0-2.4 1.4-3.3 2.6-3.3 1.5 0 2.4 1 2.4 2.6v6.3h2v-6.5c.1-2.6-1.4-4.4-3.9-4.4Zm11.2 9.1-3.6-8.9h-2.2l4.8 11.6c-.3.9-.7 1.2-1.7 1.2h-2.5v2h2.5c1.8 0 2.8-.8 3.5-2.6l4.7-12.2h-2.1l-3.4 8.9Z" fill="#FFC700"></path></svg><svg fill="none" viewBox="0 0 18 18" id="footer-logo-telegram"><path d="M14.443 3.074 2.623 7.632c-.807.324-.802.774-.148.974l3.035.947 7.021-4.43c.332-.202.635-.093.386.128l-5.689 5.134-.209 3.129c.307 0 .442-.141.614-.307l1.474-1.433 3.066 2.264c.565.312.971.152 1.112-.523l2.013-9.485c.206-.826-.316-1.2-.855-.956Z" fill="#444"></path></svg><svg fill="none" viewBox="0 0 18 18" id="footer-logo-twitter"><path d="M11.7 2.155c1.5-.5 2.6.3 3.2 1.1.5-.2 1.1-.4 1.7-.6 0 .8-.5 1.4-.8 1.6.7.2 1.2-.4 1.2-.4-.1.9-.9 1.7-1.4 1.9-.2 6.3-2.8 10.4-8.9 10.3h-.4c-.3 0-3.7-.4-4.3-1.8 2 .2 3.4-.4 4.1-1.1-.8-.3-2.4-.4-2.6-2.8.3.2.5.3 1.1.2-1.1-.8-2.3-1.5-2.2-3.5.3.3.9.5 1.2.4-.6-.2-1.8-3.1-.8-4.6 1.6 1.7 3.3 3.4 6.3 3.5.2-2.1 1-3.5 2.6-4.2Z" fill="#444"></path></svg><svg fill="none" viewBox="0 0 18 18" id="footer-logo-youtube"><path d="M16.667 5.675a1.857 1.857 0 0 0-.51-.847 2.034 2.034 0 0 0-.893-.495c-1.252-.33-6.268-.33-6.268-.33a51.082 51.082 0 0 0-6.26.314 2.107 2.107 0 0 0-.892.506c-.246.238-.425.53-.518.851A19.394 19.394 0 0 0 1 9.337a19.325 19.325 0 0 0 .326 3.662c.091.32.27.611.516.846.248.236.556.406.894.496 1.27.329 6.26.329 6.26.329 2.094.024 4.188-.08 6.268-.313.335-.087.642-.257.892-.495.244-.23.42-.524.51-.847.23-1.207.342-2.434.334-3.663a17.72 17.72 0 0 0-.333-3.678Zm-9.265 5.944V7.055l4.173 2.282-4.173 2.282Z" fill="#444"></path></svg><svg fill="none" viewBox="0 0 16 16" id="header-site-search"><path d="m15.7 14.3-3.1-3.1C13.5 10 14 8.6 14 7c0-3.9-3.1-7-7-7S0 3.1 0 7s3.1 7 7 7c1.6 0 3-.5 4.2-1.4l3.1 3.1c.2.2.4.3.7.3.6 0 1-.4 1-1 0-.2-.1-.5-.3-.7ZM2 7c0-2.8 2.2-5 5-5s5 2.2 5 5-2.2 5-5 5-5-2.2-5-5Z" fill="#000"></path></svg><svg fill="none" viewBox="0 0 16 14" id="header-user-cart"><path d="m15.3 5-3.5.2L8.6.3C8.5.1 8.2 0 8 0c-.2 0-.5.1-.6.3L4.2 5.2H.7c-.4 0-.7.3-.7.7v.2l1.9 6.8c.2.7.7 1.1 1.4 1.1h9.4c.7 0 1.2-.4 1.4-1.1L16 6v-.2c0-.4-.3-.8-.7-.8ZM8 1.9l2.2 3.2H5.9L8 1.9Z" fill="#000"></path></svg><svg fill="none" viewBox="0 0 10 12" id="header-user-compare"><path d="M6 0H4v12h2V0ZM2 4H0v8h2V4Zm8-1H8v9h2V3Z" fill="#000"></path></svg><svg fill="none" viewBox="0 0 15 12" id="header-user-login"><path d="M1 12h13c-.2-2.6-2.1-4.8-4.7-5.5 1-.6 1.7-1.7 1.7-3C11 1.6 9.4 0 7.5 0S4 1.6 4 3.5c0 1.3.7 2.4 1.7 3C3.1 7.2 1.2 9.4 1 12Z" fill="#000"></path></svg><svg fill="none" viewBox="0 0 20 60" id="main-slider-arrow"><path d="M20 60h-3.5L0 30 16.5 0H20L3.8 30 20 60Z" fill="#000"></path></svg><svg fill="none" viewBox="0 0 47 32" id="on-order-delivery"><path d="m46.7 15.4-6.5-8.2c-.3-.4-.7-.6-1.2-.6h-8.3V1.5C30.7.7 30 0 29.2 0H1.5C.7 0 0 .7 0 1.5S.7 3 1.5 3h26.2v21.7H15.8c-.6-1.9-2.4-3.3-4.5-3.3-2.6 0-4.8 2.2-4.8 4.8 0 2.6 2.2 4.8 4.8 4.8 2.1 0 3.9-1.4 4.5-3.3h13.4c.8 0 1.5-.7 1.5-1.5V9.6h7.6l5.7 7.3v7.9h-2.2c-.6-1.9-2.4-3.3-4.5-3.3-2.6 0-4.8 2.2-4.8 4.8 0 2.6 2.1 4.8 4.8 4.8 2.1 0 3.9-1.4 4.5-3.3h3.7c.8 0 1.5-.7 1.5-1.5v-9.9c0-.4-.1-.7-.3-1ZM11.3 28c-1 0-1.8-.8-1.8-1.8s.8-1.8 1.8-1.8 1.8.8 1.8 1.8-.9 1.8-1.8 1.8Zm26.1 0c-1 0-1.8-.8-1.8-1.8s.8-1.8 1.8-1.8 1.8.8 1.8 1.8-.9 1.8-1.8 1.8Z" fill="#000"></path><path d="M19.4 9.6c.8 0 1.5-.7 1.5-1.5s-.7-1.5-1.5-1.5H4.8c-.8 0-1.5.7-1.5 1.5S4 9.6 4.8 9.6h14.6Zm-1.7 5.1c0-.8-.7-1.5-1.5-1.5H1.5c-.8 0-1.5.7-1.5 1.5s.7 1.5 1.5 1.5h14.7c.8 0 1.5-.7 1.5-1.5Z" fill="#000"></path></svg><svg fill="none" viewBox="0 0 2 12" id="on-order-info"><path d="M2 0H0v2h2V0Zm0 4H0v8h2V4Z" fill="#000"></path></svg><svg fill="none" viewBox="0 0 11 10" id="sorting-order-icon"><path d="M5.5 0 11 10H0" fill="#000"></path></svg><svg fill="none" viewBox="0 0 30 30" id="sorting-select-icon"><path d="m14.993 17.825 3.848-4.5c.245-.3.245-.8 0-1.1a.563.563 0 0 0-.9 0l-3.439 4-3.438-4a.563.563 0 0 0-.9 0c-.082.2-.164.4-.164.6 0 .2.082.4.164.5l3.847 4.5c.328.3.655.3.982 0Z" fill="#000"></path></svg><svg fill="none" viewBox="0 0 16 16" id="subscription-tick"><path d="M15.5.5 5.9 9.8 1.5 5.5v4.7L6 14.5l9.5-9.3V.5Z" fill="#08AF00"></path></svg><svg fill="none" viewBox="0 0 156 188" id="tabs-credit"><path d="M141.25 83.627c8.146 0 14.75-6.604 14.75-14.75s-6.604-14.75-14.75-14.75-14.75 6.604-14.75 14.75 6.604 14.75 14.75 14.75Zm-52.137 55.917-7.074 17.875-22.824 14.917a7.16 7.16 0 0 0-3.634 6.23 7.167 7.167 0 0 0 7.167 7.167 7.121 7.121 0 0 0 4.121-1.31c3.761-2.371 22.351-14.084 25.495-15.88 3.5-2 4.125-5.125 4.125-5.125l4.875-16-5.75-2.625c-5.75-2.625-6.5-5.249-6.5-5.249Z" fill="#fff"></path><path d="M139.321 141.462s-1.158-3.834-4.579-5.167c-3.421-1.333-18.087-7.75-18.087-7.75l15.416-25.584s3.834-9-.333-13.417-13.75-9.75-13.75-9.75h-7.521l15.799-26.801c3.354-5.686 1.443-13.081-4.242-16.432L72.634 7.447c-5.687-3.352-13.08-1.442-16.432 4.244L9.144 91.519c-3.35 5.685-1.442 13.08 4.244 16.432l49.39 29.113c5.686 3.352 13.081 1.441 16.432-4.242l22.934-38.903h8.096l-14.75 26.209s-5.134 9.214-.334 14.25c4.21 4.416 12.667 6.916 12.667 6.916l17.25 6.501 5.101 31.291.009-.001c.549 3.413 3.499 6.023 7.067 6.023a7.166 7.166 0 0 0 7.166-7.167c0-.189-.014-.375-.028-.56l.028-.004-5.095-35.915ZM17.958 100.198c-1.4-.826-1.887-2.708-1.06-4.108l47.058-79.829c.826-1.401 2.707-1.888 4.107-1.062l11.521 6.792-50.104 84.998-11.522-6.791Zm53.498 28.054c-.826 1.4-2.707 1.887-4.107 1.061l-30.116-17.754L87.34 26.563l30.113 17.753c1.402.826 1.887 2.707 1.062 4.107l-18.493 31.372h-8.783L71.323 94.222a7.155 7.155 0 0 0-1.23.891l-.03.022.001.003a7.142 7.142 0 0 0-2.358 5.304 7.167 7.167 0 0 0 7.167 7.167 7.121 7.121 0 0 0 4.15-1.331l.001.003.071-.058c.182-.133.356-.273.524-.423l9.66-7.784-17.823 30.236Z" fill="#fff"></path><path d="M49.219 5.943 2.16 85.772c-3.351 5.685-1.442 13.08 4.244 16.432l49.39 29.113c5.686 3.352 13.08 1.441 16.432-4.242l47.057-79.829c3.354-5.686 1.443-13.081-4.242-16.432L65.65 1.7C59.965-1.652 52.57.258 49.219 5.943Zm-39.305 84.4 47.059-79.829c.826-1.401 2.707-1.888 4.107-1.062l11.52 6.792-50.104 84.998-11.522-6.791c-1.4-.826-1.886-2.708-1.06-4.108ZM111.53 42.676l-47.06 79.829c-.825 1.4-2.706 1.887-4.106 1.061l-30.116-17.754 50.106-84.996 30.113 17.753c1.403.825 1.887 2.706 1.063 4.107Z" fill="#F0C42E"></path><path d="M135.25 77.833c8.146 0 14.75-6.604 14.75-14.75s-6.604-14.75-14.75-14.75-14.75 6.604-14.75 14.75 6.604 14.75 14.75 14.75ZM81.875 133.75l-7.074 17.875-22.825 14.917a7.16 7.16 0 0 0-3.634 6.23 7.167 7.167 0 0 0 7.167 7.167 7.121 7.121 0 0 0 4.121-1.31c3.761-2.371 22.351-14.084 25.495-15.88 3.5-2 4.125-5.125 4.125-5.125l4.875-16-5.75-2.625c-5.75-2.625-6.5-5.249-6.5-5.249Zm50.208 1.918s-1.158-3.834-4.579-5.167c-3.421-1.333-18.087-7.75-18.087-7.75l15.416-25.584s3.834-9-.333-13.417S110.75 74 110.75 74H84L64.085 88.427a7.208 7.208 0 0 0-1.23.891l-.031.022.002.003a7.14 7.14 0 0 0-2.358 5.303 7.167 7.167 0 0 0 7.167 7.167 7.121 7.121 0 0 0 4.149-1.331l.002.003.071-.058c.182-.133.357-.273.525-.423l14.743-11.881H103l-14.75 26.209s-5.134 9.214-.334 14.25c4.209 4.416 12.667 6.916 12.667 6.916l17.25 6.501 5.101 31.291.009-.001c.549 3.413 3.499 6.023 7.067 6.023a7.166 7.166 0 0 0 7.166-7.167c0-.189-.014-.375-.028-.56l.028-.004-5.093-35.913Z" fill="#3A3A3A"></path></svg><svg fill="none" viewBox="0 0 139 165" id="tabs-delivery"><path d="M93.133 39.267c8.121 0 14.945-5.542 16.9-13.05l5.467.815a2.159 2.159 0 0 0 2.451-1.816 2.157 2.157 0 0 0-1.816-2.451l-5.541-.825c.002-.046.004-.091.004-.138 0-.182-.006-.362-.014-.542 0 0-.451-6.518-1.074-9.237-.621-2.72-2.535-3.296-2.535-3.296-9.77-2.212-19.772-2.438-22.375-2.438-2.603 0-3.158 1.332-3.158 1.332l-3.15 4.996-.01-.003c-.076.122-.146.245-.219.368l-.027.043a17.387 17.387 0 0 0-2.367 8.777c-.001 9.646 7.819 17.465 17.464 17.465Zm38.402 39.309v-.002l-26.742-2.168-9.246-21.112s-.461-2.774-6.008-8.476c-5.55-5.702-16.8-3.39-16.8-3.39s-23.885 4.469-31.744 6.318c-7.86 1.85-8.168 9.863-8.168 9.863l-.632 4.519-15.178-2.941a3.012 3.012 0 0 0-3.516 2.374L6.09 101.803a3.008 3.008 0 0 0 2.375 3.516l51.196 9.923c.115.022.23.024.346.033h.002c-.728.104-1.291-.035-1.291-.035l-9.4-1.849-3.082 17.105-23.56 20.363a7.43 7.43 0 1 0 9.857 11.086s27.725-22.05 29.575-23.591c1.85-1.54 2.773-3.853 2.773-3.853s4.541-13.948 5.779-16.874c.848-2.004 4.932-1.079 4.932-1.079l22.885 8.631 7.615 29.062c.082.63.242 1.234.473 1.804h.002a7.428 7.428 0 0 0 14.112-4.512c-.842-4.965-4.604-27.046-5.561-31.826-1.078-5.394-4.621-6.934-4.621-6.934s-21.268-11.558-22.654-12.329c-1.387-.77-1.078-2.774-1.078-2.774l3.93-14.331 2.773 5.856s1.619 3.274 4.084 3.391l33.357.82a7.43 7.43 0 0 0 7.43-7.431 7.43 7.43 0 0 0-6.804-7.399ZM60.104 63.307l-1.79 5.88 9.899 1.919-20.214-3.917.548-2.496 11.557-1.386Zm-2.25 45.473-45.303-8.781 6.27-32.353 12.542 2.431-1.618 11.567-.64 4.406c-.005.026-.008.056-.012.082l-.018.127h.002a7.43 7.43 0 0 0 7.367 8.38 7.428 7.428 0 0 0 7.368-8.366l2.9-13.223 17.414 3.374-6.271 32.356ZM25.05 17.508h38.027c1.1 0 2-.896 2-1.99 0-1.094-.9-1.99-2-1.99H25.05c-1.1 0-2 .896-2 1.99 0 1.094.9 1.99 2 1.99Zm13.03 6.017c-1.1 0-2 .896-2 1.99 0 1.094.9 1.99 2 1.99h22.959c1.1 0 2-.896 2-1.99a2 2 0 0 0-2-1.99h-22.96Z" fill="#fff"></path><path d="M87.098 33.232c8.121 0 14.945-5.542 16.9-13.049l5.467.814a2.159 2.159 0 0 0 2.451-1.816 2.157 2.157 0 0 0-1.816-2.451l-5.541-.825c.002-.046.004-.091.004-.138 0-.182-.006-.362-.014-.542 0 0-.451-6.518-1.074-9.237-.621-2.719-2.535-3.296-2.535-3.296C91.17.48 81.168.254 78.564.254c-2.604 0-3.158 1.332-3.158 1.332l-3.15 4.996-.01-.003c-.076.121-.146.245-.219.368L72 6.99a17.387 17.387 0 0 0-2.367 8.777c0 9.646 7.82 17.465 17.465 17.465ZM125.5 72.541v-.002l-26.742-2.168-9.246-21.112s-.461-2.774-6.008-8.476c-5.549-5.702-16.799-3.39-16.799-3.39s-23.886 4.47-31.745 6.317c-7.86 1.85-8.168 9.863-8.168 9.863L23.71 75.61l-.64 4.406c-.005.026-.008.056-.012.082l-.018.127h.002a7.43 7.43 0 0 0 7.367 8.38 7.428 7.428 0 0 0 7.368-8.366l4.734-21.58 11.557-1.387-1.789 5.88 9.898 1.92a3.01 3.01 0 0 1 2.375 3.516L57.14 106.83a3.012 3.012 0 0 1-2.948 2.43c-.072 0-.146-.016-.22-.021-.728.104-1.291-.035-1.291-.035l-9.4-1.849-3.082 17.105-23.56 20.363a7.43 7.43 0 1 0 9.857 11.086s27.725-22.05 29.575-23.591c1.85-1.54 2.773-3.853 2.773-3.853s4.541-13.948 5.779-16.874c.848-2.004 4.932-1.079 4.932-1.079l22.885 8.631 7.615 29.062c.082.63.242 1.234.473 1.804h.002a7.428 7.428 0 0 0 14.112-4.512c-.842-4.965-4.604-27.046-5.561-31.826-1.078-5.394-4.621-6.934-4.621-6.934S83.193 95.182 81.807 94.41c-1.387-.77-1.078-2.774-1.078-2.774l3.93-14.33 2.773 5.855s1.619 3.274 4.084 3.391l33.357.82a7.43 7.43 0 0 0 .627-14.83Z" fill="#3A3A3A"></path><path d="M53.97 109.644h.003c.073.006.147.021.22.021 1.407 0 2.67-1 2.948-2.43l7.412-38.243a3.01 3.01 0 0 0-2.375-3.517l-20.214-3.917-1.286 5.862 17.413 3.374-6.271 32.354-45.304-8.779 6.27-32.353 12.542 2.431.832-5.95-15.178-2.942a3.012 3.012 0 0 0-3.516 2.374L.055 96.173a3.008 3.008 0 0 0 2.375 3.516l51.196 9.923c.114.022.229.023.345.032Z" fill="#F0C42E"></path><path d="M59.042 9.482a2 2 0 0 1-2 1.99H19.015c-1.1 0-2-.896-2-1.99 0-1.094.9-1.99 2-1.99h38.027c1.1 0 2 .896 2 1.99Zm-2.038 9.998c0 1.094-.9 1.99-2 1.99h-22.96c-1.1 0-2-.896-2-1.99a2 2 0 0 1 2-1.99h22.959c1.1 0 2 .896 2 1.99Z" fill="#F0C52E"></path></svg><svg fill="none" viewBox="0 0 172 195" id="tabs-warranty"><path d="M78.7 174.64c-.11-.13-10.5-13-12.61-15.76a6.86 6.86 0 0 0-5.6-2.68c-2.56 0-4.83 1.17-5.51 1.55l-5.49 2.74c-1.77-.48-5.58-1.95-9.28-6.26-3.28-3.84-3.26-8.99-3.08-11.1l5.9-5.9a6.56 6.56 0 0 0 1.24-8.43l-.22-.3L29.38 110a5.2 5.2 0 0 0-4.18-1.94c-2.85 0-5.88 1.97-6.76 2.59C7.56 118.4 6.86 125.2 6.81 125.96l-.02.42.07.4c6.41 35.73 26.03 51.14 35.45 58.55 1.15.9 2.14 1.68 2.86 2.3A25.53 25.53 0 0 0 61.72 194c2.38 0 4.48-.4 6.09-1.17 4.37-2.08 9.43-8.01 10.87-9.78 2.5-3.06 1.29-6.6.17-8.2l-.16-.21ZM64.8 186.5c-.5.24-1.57.49-3.08.49a18.7 18.7 0 0 1-11.94-4.63c-.86-.75-1.92-1.58-3.14-2.55-8.7-6.82-26.73-21-32.78-53.68.29-.98 1.83-4.94 8.62-9.77.65-.45 1.5-.9 2.12-1.14l13.5 17.03-7.53 7.53-.2 1.05c-.08.42-1.91 10.4 4.52 17.94 6.29 7.35 13.25 8.66 14.59 8.85l1.08.16 7.64-3.83.22-.11a5.28 5.28 0 0 1 2.16-.65 1632.26 1632.26 0 0 0 12.5 15.64c-2.56 3.09-6.17 6.66-8.28 7.67Zm74.05-120.68c5.51-5.17 7.16-11.97 5.03-20.78a2.5 2.5 0 0 0-4.1-1.27l-8.22 7.4c-1.44-.8-3.68-2.45-4.47-5.33l6.8-6.73c.95-.94 1-2.45.11-3.44l-.19-.21c-.19-.22-.42-.4-.67-.53a20.4 20.4 0 0 0-8.83-2.12c-4.7 0-8.86 1.92-12 5.56-6 6.94-4.56 15.04-3.54 18.47l-3.49 3.49L95 51.09l4.71-3.27L79.67 34.1l-10.6 10.6 13.72 20.04 3.27-4.71L95.3 70.3 92 73.6a22.31 22.31 0 0 0-6.66-1.06 18.22 18.22 0 0 0-13.96 6.36c-.27.33-6.6 8.17-2.75 18.62a2.5 2.5 0 0 0 3.99 1.02l8.3-7.26c1.32.57 3.62 2.08 4.65 5.93l-7.38 7.51a2.5 2.5 0 0 0 1.22 4.19c.1.02 2.72.62 6.17.62 6.84 0 12.11-2.27 15.25-6.57a20.93 20.93 0 0 0 4-13.08l16.2 16.21.18.16a12.28 12.28 0 0 0 7.45 2.73c2.23 0 4.63-.74 6.85-2.83l5.52-5.51.1-.1c5.02-5.36 2.26-11.7.1-14.3L124.3 69.27c1.02.1 2.15.18 3.32.18 4.89 0 8.67-1.22 11.24-3.64Zm-53.3-13.84-2.73 3.95-7.28-10.63 4.73-4.73 10.63 7.28-3.95 2.73 14.79 13.29-4.1 4.09 1.2-1.2-13.29-14.78ZM99.11 85.5c.11.31 2.62 7.75-2.32 14.53-2.77 3.8-7.75 4.53-11.4 4.51l4.7-4.79c.56-.57.82-1.39.68-2.18-1.8-10.15-9.75-11.49-10.08-11.54-.73-.1-1.48.1-2.03.59l-6.2 5.43a14.7 14.7 0 0 1 2.75-9.93 13.13 13.13 0 0 1 10.13-4.57c3.51 0 6.23 1.21 6.25 1.22a2.5 2.5 0 0 0 2.82-.5l19-19a2.5 2.5 0 0 0 .52-2.76c-.03-.08-3.5-8.34 2.16-14.87a10.48 10.48 0 0 1 8.22-3.83c1.23 0 2.38.18 3.37.42l-5.05 5a2.5 2.5 0 0 0-.73 2.08c1.02 8.3 8.97 11.07 9.31 11.19.86.28 1.8.09 2.47-.52l6.05-5.44c.38 4.86-1.02 8.55-4.3 11.64-2.01 1.89-5.37 2.28-7.82 2.28-3.7 0-6.95-.86-6.99-.87a2.5 2.5 0 0 0-2.43.65L99.7 82.91c-.67.68-.89 1.69-.58 2.6Zm5.5 1.84v.01Zm-.18-1.12Zm33.1 10.86-5.48 5.48c-3.25 2.97-6.9.43-7.58-.1l-18.64-18.64 14.94-15.07-2.04 2.05 18.71 18.7c.46.6 3.1 4.3.09 7.58Zm-15.21-28.05Zm-.85-.15.07.01h-.07Z" fill="#fff"></path><path d="M105.16 6a65.92 65.92 0 0 0-8.52 131.28v26.22s57.44-21.24 71.97-73.62l.2-.81.34-1.28.18-.77A65.92 65.92 0 0 0 105.17 6Zm57.35 79.42v.03l-.01.03-.03.13-.12.51-.3 1.16-.1.4-.09.33c-5.56 20.05-18.52 37.7-38.5 52.44a143.41 143.41 0 0 1-19.72 12.18v-21.51l-6.1-.78a59 59 0 0 1-51.3-58.42A58.99 58.99 0 0 1 105.16 13a58.99 58.99 0 0 1 57.35 72.42Z" fill="#fff"></path><path d="M55.58 188c-2.79 0-9.99-.62-16.55-6.37-.72-.62-1.7-1.4-2.86-2.3-9.42-7.4-29.04-22.82-35.45-58.55l-.07-.4.02-.42c.05-.75.75-7.56 11.63-15.31.88-.62 3.91-2.6 6.76-2.6 1.7 0 3.2.7 4.18 1.95l14.67 18.5.22.3a6.56 6.56 0 0 1-1.25 8.44l-5.9 5.89c-.17 2.11-.19 7.26 3.1 11.1 3.69 4.31 7.5 5.79 9.27 6.27l5.5-2.75c.67-.38 2.94-1.55 5.5-1.55 2.29 0 4.27.95 5.6 2.68a1741.1 1741.1 0 0 0 12.6 15.76l.16.2c1.11 1.61 2.33 5.15-.17 8.21-1.45 1.77-6.5 7.7-10.87 9.78-1.6.76-3.71 1.17-6.09 1.17ZM7.72 120.14c6.05 32.68 24.09 46.85 32.78 53.68 1.23.97 2.28 1.8 3.14 2.55A18.7 18.7 0 0 0 55.58 181c1.51 0 2.59-.25 3.08-.5 2.11-1 5.73-4.57 8.29-7.67-1.4-1.73-10.36-12.83-12.5-15.63h-.1c-.73 0-1.78.48-2.07.65l-.21.11-7.65 3.83-1.08-.16c-1.33-.19-8.3-1.5-14.58-8.85-6.44-7.53-4.61-17.52-4.53-17.94l.2-1.06 7.53-7.52-13.5-17.03c-.61.23-1.47.69-2.12 1.14-6.8 4.83-8.33 8.8-8.62 9.77Z" fill="#3A3A3A"></path><path d="M79.44 103.54c-3.45 0-6.06-.6-6.17-.62a2.5 2.5 0 0 1-1.22-4.19l7.38-7.52c-1.03-3.84-3.33-5.35-4.66-5.92l-8.29 7.26a2.5 2.5 0 0 1-4-1.02 19.63 19.63 0 0 1 2.76-18.62 18.22 18.22 0 0 1 13.96-6.36c2.78 0 5.16.57 6.66 1.05l16.77-16.76c-1.01-3.43-2.46-11.54 3.54-18.47a15.48 15.48 0 0 1 12-5.56c4.84 0 8.67 2.03 8.83 2.12.25.13.48.31.68.53l.18.2c.9 1 .85 2.51-.1 3.45l-6.8 6.73c.78 2.88 3.02 4.54 4.46 5.33l8.22-7.4a2.5 2.5 0 0 1 4.1 1.27c2.13 8.8.48 15.6-5.03 20.78-2.57 2.42-6.35 3.64-11.24 3.64-2.79 0-5.32-.4-6.84-.71L98.13 79.4c.73 3.18 1.63 10.62-3.44 17.57-3.13 4.3-8.4 6.57-15.25 6.57Zm-.2-5c3.66.01 8.64-.71 11.4-4.51 4.95-6.78 2.44-14.22 2.34-14.53-.32-.9-.1-1.91.58-2.6l18.5-18.66a2.5 2.5 0 0 1 2.43-.65c.03 0 3.3.87 6.98.87 2.46 0 5.81-.4 7.82-2.28 3.29-3.1 4.68-6.78 4.3-11.64l-6.04 5.44c-.67.6-1.62.8-2.47.51-.34-.11-8.3-2.89-9.31-11.19a2.5 2.5 0 0 1 .72-2.08l5.05-5c-.98-.23-2.14-.41-3.37-.41-3.25 0-6.02 1.29-8.22 3.82-5.65 6.54-2.19 14.8-2.15 14.88.4.94.2 2.03-.53 2.76l-19 19a2.5 2.5 0 0 1-2.82.5c-.02-.01-2.73-1.22-6.25-1.22-4 0-7.4 1.53-10.12 4.56-.35.45-3.29 4.38-2.76 9.94l6.2-5.43a2.5 2.5 0 0 1 2.03-.6c.34.06 8.29 1.4 10.08 11.54a2.5 2.5 0 0 1-.68 2.2l-4.7 4.78Z" fill="#F0C42E"></path><path d="m79.92 54.03 9.24 10.28 3.54-3.54-13.29-14.8-2.73 3.96L69.4 39.3l4.73-4.73 10.63 7.28-3.95 2.73L95.6 57.87l3.54-3.55-10.28-9.23 4.71-3.27L73.53 28.1l-10.6 10.6 13.73 20.04 3.26-4.71Zm38.23 9.25a37.19 37.19 0 0 1-3.52-.53l-2.03 2.05 18.7 18.7c.46.6 3.1 4.3.09 7.58l-5.48 5.47c-3.25 2.98-6.9.44-7.58-.08L99.7 77.82l-1.56 1.58c.24 1.07.5 2.63.55 4.48l16.22 16.22.17.16a12.28 12.28 0 0 0 7.45 2.72c2.23 0 4.63-.74 6.86-2.82l5.51-5.51.1-.1c5.02-5.37 2.26-11.7.1-14.31l-16.94-16.96Z" fill="#3A3A3A"></path><path d="M99.02 7a58.99 58.99 0 0 1 57.35 72.42v.03l-.01.03-.03.13a36.36 36.36 0 0 1-.42 1.67l-.1.4-.09.33c-5.56 20.05-18.52 37.7-38.5 52.44a143.42 143.42 0 0 1-19.72 12.17v-21.5l-6.1-.79a59 59 0 0 1-51.3-58.4A58.99 58.99 0 0 1 99.02 7Zm0-7a65.92 65.92 0 0 0-8.52 131.28v26.22s57.44-21.24 71.97-73.62l.21-.81.33-1.28.18-.77A65.92 65.92 0 0 0 99.03 0Z" fill="#3A3A3A"></path></svg></svg>