<svg xmlns="http://www.w3.org/2000/svg"><style>:root svg:not(:target){display:none}</style><svg fill="none" viewBox="0 0 16 16" id="header-site-search"><path d="m15.7 14.3-3.1-3.1C13.5 10 14 8.6 14 7c0-3.9-3.1-7-7-7S0 3.1 0 7s3.1 7 7 7c1.6 0 3-.5 4.2-1.4l3.1 3.1c.2.2.4.3.7.3.6 0 1-.4 1-1 0-.2-.1-.5-.3-.7ZM2 7c0-2.8 2.2-5 5-5s5 2.2 5 5-2.2 5-5 5-5-2.2-5-5Z" fill="#000"></path></svg><svg fill="none" viewBox="0 0 16 14" id="header-user-cart"><path d="m15.3 5-3.5.2L8.6.3C8.5.1 8.2 0 8 0c-.2 0-.5.1-.6.3L4.2 5.2H.7c-.4 0-.7.3-.7.7v.2l1.9 6.8c.2.7.7 1.1 1.4 1.1h9.4c.7 0 1.2-.4 1.4-1.1L16 6v-.2c0-.4-.3-.8-.7-.8ZM8 1.9l2.2 3.2H5.9L8 1.9Z" fill="#000"></path></svg><svg fill="none" viewBox="0 0 10 12" id="header-user-compare"><path d="M6 0H4v12h2V0ZM2 4H0v8h2V4Zm8-1H8v9h2V3Z" fill="#000"></path></svg><svg fill="none" viewBox="0 0 15 12" id="header-user-login"><path d="M1 12h13c-.2-2.6-2.1-4.8-4.7-5.5 1-.6 1.7-1.7 1.7-3C11 1.6 9.4 0 7.5 0S4 1.6 4 3.5c0 1.3.7 2.4 1.7 3C3.1 7.2 1.2 9.4 1 12Z" fill="#000"></path></svg></svg>